<svg id="svg" version="1.1" xmlns="http://www.w3.org/2000/svg" xmlns:xlink="http://www.w3.org/1999/xlink" width="400" height="107.50210058816468" viewBox="0, 0, 400,107.50210058816468"><g id="svgg"><path id="path0" d="M56.917 16.746 C 49.837 17.415,45.261 19.748,41.871 24.417 C 36.069 32.408,37.214 45.161,44.336 51.880 C 47.416 54.786,50.491 56.287,58.083 58.593 C 69.790 62.147,71.750 63.604,71.750 68.750 C 71.750 74.110,68.175 77.696,62.182 78.348 C 55.610 79.063,51.064 76.045,48.851 69.500 C 48.207 67.595,48.168 67.441,47.963 66.028 L 47.763 64.639 47.256 64.746 C 46.742 64.855,45.074 65.057,39.833 65.645 C 35.766 66.101,35.937 66.041,36.057 66.982 C 38.182 83.578,46.131 91.152,61.041 90.785 C 72.705 90.498,79.480 86.084,82.662 76.700 C 84.557 71.113,84.099 62.261,81.669 57.478 C 78.346 50.940,73.995 48.129,61.583 44.504 C 52.599 41.880,49.754 39.755,49.752 35.667 C 49.749 30.896,55.173 27.840,61.734 28.916 C 66.762 29.740,69.159 32.500,70.084 38.530 L 70.178 39.144 71.714 39.069 C 72.559 39.028,74.225 38.922,75.417 38.834 C 76.608 38.746,78.615 38.627,79.875 38.570 L 82.167 38.466 82.166 37.608 C 82.160 26.324,74.652 17.901,63.667 16.852 C 60.431 16.543,59.261 16.525,56.917 16.746 M93.667 53.750 L 93.667 89.667 99.667 89.667 L 105.667 89.667 105.667 76.190 L 105.667 62.714 112.458 62.617 C 126.029 62.423,129.990 61.175,134.140 55.782 C 140.201 47.906,140.481 32.939,134.718 24.863 C 133.064 22.545,129.926 19.936,128.167 19.416 C 127.938 19.348,127.675 19.236,127.583 19.166 C 127.245 18.911,125.541 18.512,124.083 18.348 C 120.025 17.891,118.023 17.833,106.199 17.833 L 93.667 17.833 93.667 53.750 M303.667 53.750 L 303.667 89.667 316.208 89.666 C 329.087 89.665,331.976 89.534,334.223 88.851 C 337.797 87.763,339.114 87.152,341.396 85.521 C 347.292 81.307,350.813 74.194,352.503 63.083 C 353.547 56.220,352.813 43.318,351.044 37.417 C 350.463 35.477,349.942 33.905,349.830 33.750 C 349.764 33.658,349.621 33.306,349.512 32.967 C 347.738 27.459,341.885 21.144,336.917 19.380 C 333.070 18.014,330.612 17.834,315.792 17.834 L 303.667 17.833 303.667 53.750 M117.400 30.336 C 120.596 30.601,122.546 31.372,123.807 32.871 C 124.038 33.145,124.327 33.470,124.448 33.591 C 126.468 35.610,126.980 41.811,125.401 45.118 C 123.351 49.411,120.709 50.328,110.375 50.332 L 105.667 50.333 105.667 40.250 L 105.667 30.167 110.542 30.169 C 113.223 30.171,116.309 30.246,117.400 30.336 M326.583 30.333 C 331.193 30.627,333.241 31.430,335.692 33.902 C 339.259 37.501,340.930 45.135,340.584 56.250 C 340.436 60.994,339.577 67.509,339.001 68.250 C 338.930 68.342,338.823 68.647,338.762 68.930 C 338.141 71.842,335.750 74.880,333.160 76.050 C 330.785 77.123,328.844 77.333,321.316 77.333 L 315.667 77.333 315.667 53.750 L 315.667 30.167 319.875 30.170 C 322.190 30.172,325.208 30.245,326.583 30.333 " stroke="none" fill="#fcfcfc" fill-rule="evenodd"></path><path id="path1" d="M174.500 23.446 C 161.472 24.475,150.282 34.288,147.354 47.250 C 144.018 62.020,152.641 77.539,166.917 82.460 C 171.610 84.078,171.351 84.053,183.917 84.120 L 194.917 84.179 195.667 83.777 C 197.919 82.572,198.158 79.245,196.110 77.598 L 195.469 77.083 187.582 77.037 L 179.695 76.991 179.056 77.580 C 175.934 80.458,170.920 78.150,170.918 73.833 C 170.915 69.487,176.285 67.239,179.258 70.341 L 179.729 70.833 196.287 70.833 C 209.801 70.833,212.943 70.792,213.380 70.609 C 216.589 69.264,216.308 64.444,212.976 63.675 C 212.508 63.568,203.658 63.507,188.108 63.504 L 163.966 63.500 163.174 64.208 C 158.529 68.362,152.267 61.686,156.428 57.016 C 158.123 55.114,161.973 55.128,163.591 57.042 L 163.978 57.500 183.781 57.498 L 203.583 57.497 204.427 57.104 C 207.369 55.734,207.212 51.400,204.183 50.361 C 203.764 50.217,198.449 50.167,183.756 50.167 L 163.896 50.167 163.438 50.644 C 160.463 53.749,155.086 51.454,155.094 47.083 C 155.101 42.787,160.002 40.604,163.301 43.427 L 163.970 44.000 188.276 43.999 C 204.724 43.998,212.787 43.942,213.213 43.823 C 215.760 43.116,216.489 39.605,214.479 37.724 C 213.305 36.626,213.978 36.666,196.619 36.672 L 180.917 36.677 180.339 37.258 C 176.485 41.129,170.043 36.394,172.505 31.500 C 174.060 28.411,178.505 27.812,180.655 30.403 C 180.913 30.714,193.932 30.806,194.984 30.505 C 197.958 29.652,198.443 25.601,195.778 23.869 L 195.083 23.417 185.167 23.402 C 179.713 23.393,174.912 23.413,174.500 23.446 M253.083 23.503 C 249.570 23.882,246.848 24.646,243.167 26.287 C 237.432 28.844,231.583 34.646,228.914 40.425 C 228.493 41.337,228.079 42.233,227.995 42.417 C 225.288 48.305,225.149 57.463,227.664 64.242 C 228.919 67.627,230.506 70.390,232.831 73.242 C 235.849 76.944,241.230 80.815,245.250 82.177 C 245.617 82.301,245.992 82.455,246.083 82.519 C 246.319 82.684,247.931 83.121,250.167 83.627 L 252.083 84.060 263.038 84.123 C 272.961 84.180,274.046 84.160,274.572 83.911 C 277.282 82.625,277.431 78.889,274.833 77.347 C 274.265 77.010,274.047 77.001,266.526 77.001 L 258.801 77.000 258.091 77.625 C 254.272 80.987,248.335 76.607,250.396 71.948 C 251.818 68.733,255.680 67.953,258.391 70.333 L 258.961 70.833 275.504 70.833 L 292.047 70.833 292.789 70.463 C 295.826 68.946,295.258 64.290,291.959 63.652 C 291.569 63.576,280.408 63.511,267.158 63.507 L 243.065 63.500 242.500 64.083 C 242.189 64.404,241.837 64.667,241.717 64.667 C 241.598 64.667,241.500 64.724,241.500 64.794 C 241.500 64.864,241.134 65.052,240.686 65.211 C 236.876 66.564,233.070 62.609,234.501 58.785 C 235.752 55.443,240.103 54.443,242.525 56.942 L 243.065 57.500 262.908 57.498 L 282.750 57.497 283.583 57.105 C 285.847 56.042,286.448 52.911,284.709 51.241 C 283.517 50.096,285.112 50.174,262.987 50.170 L 243.058 50.167 242.664 50.586 C 239.620 53.827,233.848 51.231,234.205 46.781 C 234.545 42.547,239.512 40.689,242.665 43.616 L 243.083 44.004 267.750 43.960 C 292.268 43.917,292.420 43.915,292.998 43.575 C 295.455 42.132,295.360 38.589,292.826 37.167 L 292.083 36.750 276.094 36.705 L 260.104 36.660 259.510 37.232 C 256.238 40.388,250.959 37.980,251.198 33.441 C 251.424 29.152,256.245 27.258,259.522 30.171 L 260.083 30.670 267.167 30.627 L 274.250 30.583 275.002 30.141 C 277.324 28.776,277.290 25.394,274.938 23.864 L 274.250 23.417 264.250 23.397 C 258.750 23.386,253.725 23.434,253.083 23.503 M176.167 31.435 C 173.828 32.131,174.075 35.674,176.491 36.082 C 179.354 36.566,180.524 32.020,177.695 31.403 C 177.450 31.349,177.175 31.284,177.083 31.259 C 176.992 31.233,176.579 31.313,176.167 31.435 M255.289 31.447 C 253.105 32.084,253.131 35.360,255.326 36.018 C 257.888 36.785,259.616 33.705,257.641 31.891 C 257.031 31.331,256.214 31.177,255.289 31.447 M158.917 44.900 C 156.876 45.801,157.235 49.018,159.422 49.429 C 161.079 49.740,162.201 48.913,162.291 47.314 C 162.408 45.255,160.769 44.083,158.917 44.900 M237.816 45.048 C 235.904 46.334,236.591 49.197,238.874 49.454 C 240.383 49.624,241.498 48.638,241.499 47.135 C 241.501 45.154,239.415 43.972,237.816 45.048 M158.662 58.451 C 156.630 59.851,157.546 62.833,160.008 62.833 C 161.791 62.833,162.893 61.083,162.184 59.376 C 161.730 58.284,159.684 57.746,158.662 58.451 M237.628 58.542 C 235.813 60.148,236.747 62.838,239.117 62.831 C 241.316 62.824,242.364 60.422,240.859 58.840 C 240.055 57.995,238.417 57.843,237.628 58.542 M174.300 72.002 C 172.908 73.149,173.120 75.171,174.722 76.035 C 176.654 77.076,178.805 75.121,178.029 73.030 C 177.453 71.478,175.566 70.958,174.300 72.002 M253.592 71.826 C 251.604 73.136,252.568 76.333,254.951 76.333 C 257.331 76.333,258.234 73.140,256.226 71.816 C 255.580 71.390,254.246 71.395,253.592 71.826 " stroke="none" fill="#236cd4" fill-rule="evenodd"></path><path id="path2" d="" stroke="none" fill="#c4100e8" fill-rule="evenodd"></path><path id="path3" d="" stroke="none" fill="#c4100e8" fill-rule="evenodd"></path><path id="path4" d="" stroke="none" fill="#c4100e8" fill-rule="evenodd"></path></g></svg>